<svg version="1.1" id="Layer_1" xmlns="http://www.w3.org/2000/svg" xmlns:xlink="http://www.w3.org/1999/xlink" x="0px" y="0px"
	 width="100%" viewBox="0 0 512 512" enable-background="new 0 0 512 512" xml:space="preserve">
<path fill="currentColor" opacity="1.000000" stroke="none"
	d="
M95.468658,513.000000 
	C93.604050,510.326050 90.319183,509.868317 88.608879,507.629547 
	C85.531570,503.601379 83.585625,499.242279 83.595032,493.915527 
	C83.689247,440.594543 83.324944,387.270325 83.821754,333.953827 
	C84.003525,314.446320 92.551201,298.296539 107.674141,285.522461 
	C117.763115,277.000427 129.955002,273.161560 141.799316,268.484406 
	C164.181091,259.646057 186.662994,251.060867 209.121582,242.417999 
	C211.599335,241.464447 212.956741,240.044220 212.686172,237.228867 
	C212.511673,235.413269 212.506454,233.549927 212.696625,231.736420 
	C213.349716,225.508209 211.329468,221.239639 206.235992,216.823715 
	C195.335587,207.373306 188.693832,194.785828 185.869873,180.593796 
	C185.093292,176.690994 183.382996,175.202087 180.035324,174.414490 
	C169.033203,171.826035 161.258636,165.098633 157.160828,154.794189 
	C152.944077,144.190674 153.479050,133.638885 160.600754,124.116837 
	C162.206512,121.969849 162.676102,119.687469 162.664978,117.119392 
	C162.624542,107.788383 162.316650,98.442406 162.723068,89.128838 
	C163.658035,67.703156 171.051651,48.840244 185.203217,32.479240 
	C199.704361,15.714075 218.039505,6.042094 239.669067,1.150037 
	C251.354233,1.000000 262.708466,1.000000 274.531342,1.000000 
	C277.830200,3.228156 281.417664,3.464351 284.656342,4.576222 
	C320.150513,16.761641 341.433350,41.243244 348.400543,78.099899 
	C350.602325,89.747604 350.484772,101.559883 350.343628,113.354828 
	C350.288086,117.994690 351.025543,122.061203 353.430511,126.491791 
	C362.818115,143.786179 356.667419,168.058823 332.842865,174.140533 
	C328.997559,175.122131 327.168060,176.779373 326.455475,180.422882 
	C323.550629,195.275772 316.305908,207.740234 305.106781,217.805862 
	C302.038757,220.563354 301.220764,223.505249 301.274780,227.420578 
	C301.458801,240.764709 301.286713,240.894470 313.801453,245.818893 
	C338.498016,255.536697 363.404358,264.737549 387.946259,274.827545 
	C411.114227,284.352631 425.491180,301.405579 429.486359,326.658661 
	C430.170135,330.980896 430.321716,335.243530 430.329651,339.554840 
	C430.358429,355.220825 430.371063,370.886963 430.329773,386.552917 
	C430.312805,392.995331 427.565643,396.297302 422.382568,396.370056 
	C416.798737,396.448425 413.705200,393.135864 413.677460,386.720184 
	C413.613342,371.887726 413.116119,357.031006 413.770721,342.227295 
	C414.916138,316.324768 400.159332,296.769348 376.956238,288.444275 
	C363.377411,283.572357 349.973083,278.194458 336.615509,272.737610 
	C332.566559,271.083557 330.458710,271.582886 328.497162,275.691772 
	C322.263458,288.749451 315.497131,301.552856 309.267700,314.612488 
	C304.549225,324.504486 295.171692,328.222595 287.016785,322.550018 
	C285.909027,321.779449 284.485565,321.283600 283.475342,322.743744 
	C281.611328,325.437988 278.902374,327.898132 279.521973,331.583252 
	C281.524719,343.495361 283.725037,355.374054 285.765594,367.279999 
	C289.315613,387.993164 292.802460,408.717133 296.317230,429.436340 
	C297.867157,438.572815 299.455811,447.702911 300.960907,456.846741 
	C302.117950,463.875824 301.324951,470.060059 295.696106,475.558655 
	C288.987732,482.111877 283.140778,489.546967 276.929230,496.590302 
	C278.206360,498.134888 279.641663,497.616547 280.885773,497.618469 
	C303.551514,497.653656 326.218567,497.518616 348.882019,497.748260 
	C353.672119,497.796783 354.741028,496.080505 354.729034,491.646332 
	C354.603333,445.148499 354.665863,398.650238 354.639008,352.152069 
	C354.637024,348.720825 354.736847,345.384033 357.957092,343.260773 
	C362.844269,340.038452 368.736053,342.529785 370.450653,348.286987 
	C371.228882,350.900024 371.356049,353.500824 371.355499,356.166718 
	C371.346222,400.998291 371.346802,445.829834 371.350494,490.661407 
	C371.351044,497.628693 371.363220,497.639771 378.119781,497.646362 
	C387.286072,497.655334 396.452789,497.695709 405.618561,497.626068 
	C411.976135,497.577759 413.633240,495.898407 413.640503,489.621704 
	C413.665649,467.955933 413.607025,446.289917 413.680786,424.624359 
	C413.706329,417.116394 419.101227,413.169952 425.456879,415.858490 
	C428.642639,417.206116 430.348480,419.627441 430.344299,423.224060 
	C430.316315,447.389709 430.397400,471.555756 430.283295,495.720917 
	C430.246490,503.518188 425.165680,508.297516 419.147400,512.705200 
	C347.979095,513.000000 276.958221,513.000000 205.324722,512.667297 
	C204.456009,511.907074 204.253876,511.433533 203.935150,511.059357 
	C201.551941,508.261292 200.865753,505.228729 202.564896,501.828522 
	C204.286209,498.383911 207.151917,497.398163 210.833832,497.597992 
	C214.655792,497.805481 218.501984,497.760437 222.329742,497.616821 
	C226.893509,497.445526 231.534424,498.287750 235.932800,497.070068 
	C236.179749,495.788055 235.732971,495.110443 235.167053,494.476959 
	C228.971481,487.541870 222.807434,480.578217 216.565536,473.685059 
	C213.993912,470.845154 212.626968,467.694183 212.618973,463.786285 
	C212.603897,456.414368 214.446899,449.329651 215.631271,442.145477 
	C219.376038,419.430420 223.149002,396.719788 226.997620,374.022125 
	C229.405930,359.818726 231.980118,345.643524 234.457596,331.451782 
	C235.121857,327.646759 232.088043,325.435638 230.451111,322.661499 
	C229.556488,321.145416 227.998718,321.835938 226.903259,322.558990 
	C218.160431,328.329651 209.228043,324.091797 204.729370,314.521179 
	C198.644272,301.575500 191.894882,288.943146 185.726196,276.035034 
	C183.739532,271.877930 181.563812,271.013031 177.295319,272.752930 
	C162.090210,278.950714 146.763458,284.850616 131.473099,290.838623 
	C113.812164,297.755005 100.357269,317.337402 100.348938,336.323456 
	C100.326553,387.321320 100.337906,438.319183 100.341591,489.317047 
	C100.342072,495.989899 101.802589,497.546539 108.531693,497.613281 
	C117.697105,497.704193 126.864029,497.650330 136.030304,497.645325 
	C142.628006,497.641724 142.646271,497.632141 142.647552,491.002167 
	C142.656296,446.004028 142.664429,401.005920 142.641571,356.007782 
	C142.640121,353.162506 142.882248,350.397156 143.576599,347.620300 
	C144.160934,345.283508 145.572739,343.824249 147.569092,342.822876 
	C153.332199,339.932220 159.548111,344.054260 159.489304,351.174622 
	C159.182297,388.337219 159.347824,425.503693 159.348984,462.668823 
	C159.349289,472.501740 159.492691,482.337769 159.280594,492.166107 
	C159.193924,496.181671 160.351089,498.035156 164.629532,497.706512 
	C168.274094,497.426575 171.961639,497.556580 175.623642,497.687653 
	C181.591873,497.901184 185.153671,503.499359 182.790009,508.952667 
	C182.204941,510.302460 181.036819,511.397003 181.000000,513.000000 
	C152.645767,513.000000 124.291542,513.000000 95.468658,513.000000 
M280.418152,213.803497 
	C300.603333,203.959564 310.444550,187.171280 311.496185,165.357285 
	C312.273071,149.242004 311.580261,133.058655 311.704987,116.906898 
	C311.730865,113.555969 310.843506,111.051552 308.621429,108.402748 
	C304.969849,104.049866 300.324432,100.560188 297.131714,95.983498 
	C294.230164,91.824219 291.734619,92.864822 288.538239,94.759102 
	C275.762146,102.330627 262.239197,108.055962 247.789917,111.640121 
	C233.130295,115.276451 218.402222,117.971786 203.201355,116.511986 
	C200.896042,116.290604 200.344193,117.694916 200.362152,119.608955 
	C200.530548,137.555084 198.632614,155.690491 201.692627,173.399643 
	C208.032028,210.087646 247.619125,230.051651 280.418152,213.803497 
M181.886398,74.231102 
	C178.548431,84.747803 179.401169,95.596588 179.378601,106.370895 
	C179.375351,107.922462 178.810806,109.908188 181.139709,110.476730 
	C183.341614,111.014267 184.635895,109.710472 185.481873,107.954964 
	C189.044189,100.562790 195.919083,99.162354 202.735352,99.902924 
	C212.290268,100.941017 221.672241,99.906525 230.825928,98.253326 
	C250.060059,94.779549 268.182800,87.909767 284.757935,77.269638 
	C291.593201,72.881836 299.440338,73.502686 305.312622,79.309151 
	C311.077667,85.009567 316.253998,91.302986 321.737549,97.291428 
	C324.778656,100.612572 327.946442,103.784500 328.596466,108.596573 
	C328.798737,110.094063 330.171875,110.679962 331.663116,110.515915 
	C333.431458,110.321396 333.548615,108.970695 333.638489,107.572105 
	C334.184509,99.075668 333.748962,90.522934 332.316376,82.242661 
	C328.820404,62.036457 319.057739,45.228386 302.576843,32.675034 
	C286.034576,20.074917 267.128174,15.361114 246.739029,17.619286 
	C230.702805,19.395357 216.692245,26.147463 204.634918,37.235378 
	C193.679291,47.310181 186.321716,59.321323 181.886398,74.231102 
M270.053986,376.107239 
	C267.920898,363.559692 265.719421,351.023071 263.715332,338.454956 
	C263.337769,336.087158 262.260559,335.332153 260.114899,335.375397 
	C258.284882,335.412292 256.446594,335.466370 254.623886,335.340393 
	C251.795074,335.144806 250.579163,336.190735 250.113312,339.180756 
	C248.383240,350.285095 246.264908,361.328217 244.393555,372.411407 
	C239.577621,400.934326 234.889175,429.479126 229.919205,457.974976 
	C229.419327,460.841034 229.915604,462.616608 231.760696,464.635803 
	C236.230560,469.527527 240.254013,474.846893 244.918488,479.535156 
	C249.054977,483.692719 253.812683,487.232239 258.352631,491.092621 
	C266.103973,482.509521 274.643188,473.045258 283.197327,463.594513 
	C284.137817,462.555511 284.679962,461.495331 284.420715,460.002411 
	C282.640442,449.750305 280.908081,439.489838 279.177979,429.229095 
	C276.238251,411.794250 273.311523,394.357208 270.053986,376.107239 
M253.464706,272.857605 
	C254.532822,274.086914 255.371155,275.609009 257.377716,275.892242 
	C257.984924,275.444580 258.786774,275.069275 259.289154,274.450714 
	C266.706512,265.318695 273.966339,256.055725 281.519806,247.038483 
	C285.400909,242.405304 285.025818,237.462280 283.993408,231.450073 
	C265.880707,237.938705 247.986557,237.933212 230.224945,231.790726 
	C228.488983,239.233994 228.994553,242.822250 232.345276,246.926956 
	C239.254852,255.391418 246.223480,263.807678 253.464706,272.857605 
M201.242767,269.418060 
	C206.755463,280.430603 212.344604,291.405975 217.731064,302.479889 
	C219.214691,305.530029 220.918076,305.949982 223.528183,304.094971 
	C230.393509,299.215820 237.264816,294.345093 244.126999,289.475800 
	C243.884476,288.753601 243.844162,288.197479 243.556519,287.840820 
	C236.384354,278.948212 229.202164,270.063538 221.982437,261.209503 
	C219.854721,258.600128 217.657425,256.928131 213.884506,258.943237 
	C210.559921,260.718933 206.782867,261.666656 203.172989,262.883148 
	C199.962173,263.965179 198.875290,265.750977 201.242767,269.418060 
M278.709534,295.746429 
	C283.764679,298.972717 288.023010,303.528076 294.138031,305.574707 
	C301.045593,291.785583 307.720978,278.459869 314.451111,265.024933 
	C308.873596,261.392242 302.725006,260.257812 297.195892,257.685577 
	C295.429840,256.863922 294.502136,258.265259 293.537323,259.449890 
	C290.293427,263.432831 286.920410,267.314240 283.772278,271.370697 
	C279.155518,277.319458 273.824188,282.734436 269.802643,289.347076 
	C272.741974,291.495422 275.412537,293.447327 278.709534,295.746429 
M180.652618,156.791443 
	C182.509293,157.668167 184.505585,158.182114 184.552338,155.255569 
	C184.696487,146.234360 184.604919,137.209396 184.604919,127.602646 
	C179.507309,129.235916 175.989777,131.582108 173.790619,135.400986 
	C169.202972,143.367493 171.293671,150.157028 180.652618,156.791443 
M251.674698,305.297058 
	C249.628326,306.703278 247.572723,308.096313 245.539124,309.520752 
	C244.355942,310.349518 243.529709,311.382172 244.483994,312.850189 
	C246.454773,315.881927 248.051895,319.254608 252.764038,318.717926 
	C256.046539,318.344055 259.409119,318.537170 262.728973,318.661926 
	C266.883911,318.818054 268.005768,315.485596 269.212250,312.755615 
	C270.362427,310.153076 267.692352,309.136780 265.994659,307.905029 
	C264.520508,306.835449 262.902435,305.918640 261.593719,304.675568 
	C258.343201,301.588104 255.278412,301.773102 251.674698,305.297058 
M328.346130,149.348480 
	C328.568970,151.912201 327.808746,154.593475 328.980530,157.076584 
	C336.752991,155.240723 341.031677,149.367569 340.640869,141.391251 
	C340.299896,134.433075 335.670532,129.126801 328.344208,128.043396 
	C328.344208,134.886383 328.344208,141.637787 328.346130,149.348480 
z"/>
</svg>