<?xml version="1.0" standalone="no"?>
<!DOCTYPE svg PUBLIC "-//W3C//DTD SVG 20010904//EN"
 "http://www.w3.org/TR/2001/REC-SVG-20010904/DTD/svg10.dtd">
<svg version="1.0" xmlns="http://www.w3.org/2000/svg"
 width="512.000000pt" height="512.000000pt" viewBox="0 0 512.000000 512.000000"
 preserveAspectRatio="xMidYMid meet">

<g transform="translate(0.000000,512.000000) scale(0.100000,-0.100000)"
fill="#000000" stroke="none">
<path d="M1317 5104 c-287 -53 -547 -244 -663 -487 -10 -20 -23 -37 -30 -37
-8 0 -38 -9 -69 -21 -77 -29 -156 -104 -197 -187 l-33 -67 -3 -530 c-2 -291 0
-540 3 -553 15 -62 94 -84 140 -37 l25 24 0 513 c0 342 4 526 11 553 7 25 27
56 54 81 41 40 55 46 172 70 16 3 35 29 67 92 117 224 298 365 533 413 90 19
129 20 558 17 441 -4 463 -5 533 -26 304 -92 512 -339 552 -653 14 -114 13
-1052 -1 -1119 -8 -38 -21 -62 -52 -93 l-42 -42 -6 335 c-5 308 -7 340 -27
400 -60 183 -196 320 -384 388 l-73 27 -621 3 c-699 3 -708 3 -849 -67 -137
-68 -252 -201 -298 -346 -21 -68 -22 -82 -22 -565 l0 -495 27 -98 c32 -117
110 -284 174 -374 96 -135 254 -277 376 -339 27 -14 52 -32 55 -40 10 -27 -28
-143 -67 -202 -42 -65 -107 -128 -171 -165 -24 -14 -163 -67 -308 -117 -329
-113 -382 -140 -486 -244 -63 -63 -90 -100 -122 -166 -66 -134 -73 -189 -73
-565 l0 -327 29 -29 c31 -31 55 -36 94 -18 44 20 47 42 47 374 0 191 4 335 11
367 28 134 132 274 247 332 29 15 164 65 300 111 326 112 376 137 478 239 87
88 141 173 170 271 10 33 21 64 24 68 4 4 54 -2 111 -13 145 -30 359 -24 502
13 453 120 788 503 847 970 7 53 17 97 22 97 21 0 115 53 147 83 18 18 49 55
67 84 l34 52 0 235 0 235 58 16 c258 72 533 194 721 321 l34 23 39 -62 c75
-115 216 -235 333 -284 l45 -18 0 -375 c0 -326 -3 -387 -19 -465 -61 -295
-245 -534 -516 -670 -163 -82 -235 -99 -430 -99 -193 0 -245 11 -427 91 -73
32 -79 33 -111 20 -73 -31 -71 -119 4 -158 35 -18 38 -22 32 -52 -3 -17 -17
-61 -30 -96 -20 -54 -22 -70 -12 -98 12 -39 34 -53 82 -53 47 0 71 29 103 128
l28 84 30 -7 c192 -41 362 -46 518 -15 306 63 571 243 740 504 68 105 110 202
146 335 26 96 26 97 30 553 2 293 0 464 -7 476 -5 10 -50 35 -98 55 -161 68
-276 176 -343 322 -31 66 -52 90 -90 100 -21 5 -50 -10 -155 -81 -72 -48 -192
-117 -267 -154 -126 -62 -363 -150 -402 -150 -14 0 -16 26 -16 243 0 265 -9
375 -41 482 -46 153 -111 265 -224 384 -120 126 -270 216 -440 263 -77 21 -99
22 -565 24 -386 2 -501 0 -563 -12z m1054 -1120 c128 -29 250 -134 300 -261
24 -57 24 -64 27 -478 2 -340 0 -438 -12 -517 -50 -314 -246 -579 -531 -718
-156 -76 -238 -94 -430 -94 -195 0 -267 17 -430 99 -196 98 -332 234 -430 430
-98 195 -99 199 -103 725 -2 313 0 469 8 499 40 157 177 290 332 320 24 5 303
9 621 10 495 1 588 -1 648 -15z"/>
<path d="M3225 5097 c-40 -34 -41 -90 -1 -123 27 -24 29 -24 261 -24 128 0
269 -5 311 -11 392 -54 713 -342 816 -730 22 -83 22 -90 26 -989 2 -813 1
-909 -13 -947 -20 -51 -62 -89 -116 -103 -54 -15 -79 -42 -79 -85 0 -50 36
-85 87 -85 88 0 212 90 260 189 l28 56 3 905 c3 798 1 917 -13 1004 -39 236
-139 436 -304 608 -160 169 -353 277 -591 335 -48 11 -141 16 -356 20 l-291 5
-28 -25z"/>
<path d="M2209 1591 c-50 -51 -34 -96 66 -186 l55 -50 -50 -67 c-63 -84 -142
-147 -245 -198 -110 -55 -189 -73 -310 -73 -153 0 -277 40 -400 128 -74 52
-119 59 -152 23 -61 -69 -21 -130 147 -221 306 -167 686 -128 965 99 48 39
119 122 185 214 15 21 16 21 270 -68 140 -49 269 -96 286 -105 104 -54 197
-167 235 -286 20 -61 23 -93 28 -414 l6 -349 24 -19 c32 -26 74 -24 108 5 l28
24 0 349 c0 302 -3 357 -18 413 -51 187 -167 337 -329 425 -27 15 -171 69
-320 121 -149 52 -292 106 -319 120 -26 15 -76 53 -110 85 -74 70 -104 76
-150 30z"/>
<path d="M3905 1598 c-32 -17 -45 -39 -45 -79 0 -32 8 -44 66 -98 l66 -62 -27
-41 c-45 -68 -106 -128 -186 -185 -43 -29 -80 -60 -83 -69 -20 -52 7 -107 59
-120 65 -16 263 142 356 286 18 28 33 50 35 50 16 0 505 -175 545 -195 76 -39
169 -136 207 -215 46 -98 52 -154 52 -491 0 -326 3 -348 47 -368 39 -18 63
-13 94 19 l30 30 -3 357 c-4 341 -5 361 -27 428 -32 98 -82 184 -148 256 -105
113 -160 141 -503 259 -281 97 -328 119 -400 185 -69 65 -96 75 -135 53z"/>
</g>
</svg>
